<svg width="188" height="33" viewBox="0 0 188 33" fill="none" xmlns="http://www.w3.org/2000/svg">
<path d="M39.772 31V4.54H52.192V8.032H43.768V15.52H50.32V19.048H43.768V31H39.772ZM56.3056 31V14.476H60.3376V31H56.3056ZM58.3216 11.38C57.5776 11.38 56.9536 11.128 56.4496 10.624C55.9696 10.12 55.7296 9.496 55.7296 8.752C55.7296 8.08 55.9696 7.504 56.4496 7.024C56.9536 6.544 57.5776 6.304 58.3216 6.304C59.0656 6.304 59.6776 6.544 60.1576 7.024C60.6616 7.504 60.9136 8.08 60.9136 8.752C60.9136 9.496 60.6616 10.12 60.1576 10.624C59.6776 11.128 59.0656 11.38 58.3216 11.38ZM65.3072 31V14.476H69.1232L69.1592 17.5C69.5912 16.516 70.2872 15.7 71.2472 15.052C72.2312 14.38 73.4072 14.044 74.7753 14.044C76.5513 14.044 77.8833 14.416 78.7713 15.16C79.6593 15.88 80.2473 16.912 80.5352 18.256C80.8473 19.6 81.0033 21.196 81.0033 23.044V31H77.1152V23.152C77.1152 21.232 76.9232 19.768 76.5392 18.76C76.1793 17.752 75.3273 17.248 73.9832 17.248C73.2872 17.248 72.5672 17.464 71.8232 17.896C71.0792 18.328 70.4552 18.952 69.9512 19.768C69.4472 20.584 69.1952 21.592 69.1952 22.792V31H65.3072ZM93.6564 31.36C91.9284 31.36 90.4044 30.976 89.0844 30.208C87.7884 29.44 86.7804 28.396 86.0604 27.076C85.3404 25.756 84.9804 24.292 84.9804 22.684C84.9804 21.1 85.3284 19.66 86.0244 18.364C86.7444 17.044 87.7524 16 89.0484 15.232C90.3444 14.44 91.8804 14.044 93.6564 14.044C95.4324 14.044 96.9684 14.44 98.2644 15.232C99.5604 16 100.556 17.044 101.252 18.364C101.948 19.66 102.296 21.1 102.296 22.684C102.296 24.292 101.936 25.756 101.216 27.076C100.52 28.396 99.5244 29.44 98.2284 30.208C96.9324 30.976 95.4084 31.36 93.6564 31.36ZM93.7644 28.192C95.2044 28.192 96.3084 27.664 97.0764 26.608C97.8684 25.552 98.2644 24.268 98.2644 22.756C98.2644 21.724 98.0724 20.8 97.6884 19.984C97.3044 19.144 96.7524 18.472 96.0324 17.968C95.3364 17.464 94.5084 17.212 93.5484 17.212C92.6124 17.212 91.8084 17.464 91.1364 17.968C90.4644 18.472 89.9364 19.144 89.5524 19.984C89.1924 20.8 89.0124 21.724 89.0124 22.756C89.0124 23.764 89.2164 24.688 89.6244 25.528C90.0324 26.344 90.5844 26.992 91.2804 27.472C92.0004 27.952 92.8284 28.192 93.7644 28.192ZM114.513 31.36C112.905 31.36 111.441 31.012 110.121 30.316C108.825 29.62 107.781 28.612 106.989 27.292C106.221 25.972 105.837 24.388 105.837 22.54C105.837 20.812 106.185 19.312 106.881 18.04C107.601 16.768 108.597 15.784 109.869 15.088C111.165 14.392 112.653 14.044 114.333 14.044C115.725 14.044 116.865 14.224 117.753 14.584C118.665 14.944 119.349 15.328 119.805 15.736L118.077 18.868C117.981 18.748 117.789 18.568 117.501 18.328C117.213 18.088 116.829 17.872 116.349 17.68C115.893 17.464 115.329 17.356 114.657 17.356C113.073 17.356 111.885 17.836 111.093 18.796C110.325 19.756 109.941 20.992 109.941 22.504C109.941 24.256 110.349 25.636 111.165 26.644C112.005 27.628 113.169 28.12 114.657 28.12C115.449 28.12 116.193 28.012 116.889 27.796C117.585 27.556 118.113 27.304 118.473 27.04L119.877 29.776C119.445 30.112 118.761 30.46 117.825 30.82C116.889 31.18 115.785 31.36 114.513 31.36ZM129.416 31.36C127.76 31.36 126.5 31.012 125.636 30.316C124.772 29.62 124.184 28.696 123.872 27.544C123.584 26.392 123.44 25.12 123.44 23.728V14.476H127.328V22.756C127.328 24.028 127.4 25.06 127.544 25.852C127.712 26.644 128.024 27.232 128.48 27.616C128.96 27.976 129.668 28.156 130.604 28.156C131.276 28.156 131.912 27.976 132.512 27.616C133.136 27.232 133.652 26.716 134.06 26.068C134.468 25.396 134.672 24.652 134.672 23.836V14.476H138.524V31H135.356L134.924 28.588C134.324 29.5 133.58 30.196 132.692 30.676C131.804 31.132 130.712 31.36 129.416 31.36ZM143.571 31V4.54H147.423V31H143.571ZM159.986 31.36C158.522 31.36 157.154 31.012 155.882 30.316C154.634 29.62 153.626 28.624 152.858 27.328C152.09 26.032 151.706 24.484 151.706 22.684C151.706 20.956 152.03 19.444 152.678 18.148C153.35 16.852 154.286 15.844 155.486 15.124C156.71 14.404 158.162 14.044 159.842 14.044C160.85 14.044 161.762 14.224 162.578 14.584C163.418 14.92 164.114 15.34 164.666 15.844C165.242 16.324 165.626 16.792 165.818 17.248L165.89 14.476H169.598V31H165.926L165.854 28.084C165.614 28.612 165.206 29.128 164.63 29.632C164.078 30.136 163.406 30.556 162.614 30.892C161.822 31.204 160.946 31.36 159.986 31.36ZM160.634 28.12C161.522 28.12 162.326 27.916 163.046 27.508C163.79 27.076 164.378 26.476 164.81 25.708C165.266 24.94 165.494 24.028 165.494 22.972V22.72C165.494 21.64 165.266 20.704 164.81 19.912C164.378 19.096 163.79 18.472 163.046 18.04C162.326 17.584 161.522 17.356 160.634 17.356C159.026 17.356 157.814 17.872 156.998 18.904C156.206 19.936 155.81 21.208 155.81 22.72C155.81 24.256 156.206 25.54 156.998 26.572C157.814 27.604 159.026 28.12 160.634 28.12ZM174.586 31V14.476H178.474V17.716C178.858 16.636 179.47 15.76 180.31 15.088C181.174 14.392 182.17 14.044 183.298 14.044C184.066 14.044 184.594 14.116 184.882 14.26L184.342 18.184C184.126 18.04 183.658 17.968 182.938 17.968C182.338 17.968 181.69 18.1 180.994 18.364C180.298 18.628 179.698 19.096 179.194 19.768C178.714 20.416 178.474 21.328 178.474 22.504V31H174.586Z" fill="#2058E7"/>
<circle cx="15" cy="17" r="15" fill="#2058E7"/>
<path d="M15 2C23.2843 2 30 8.71573 30 17C30 25.2843 23.2843 32 15 32C14.2152 32 13.4447 31.9384 12.6924 31.8223C17.9639 30.7121 22 24.4993 22 17C22 9.50056 17.964 3.28685 12.6924 2.17676C13.4446 2.06061 14.2152 2 15 2Z" fill="#F59425"/>
<circle cx="6" cy="17" r="5" fill="white"/>
</svg>
